<svg version="1.1" id="Layer_1" xmlns="http://www.w3.org/2000/svg" xmlns:xlink="http://www.w3.org/1999/xlink" x="0px" y="0px"
     width="100%" viewBox="0 0 1024 1024" enable-background="new 0 0 1024 1024" xml:space="preserve">
<g transform="translate(512 512) scale(1.62) translate(-512 -512)">
<path fill="#ffffff" opacity="1.000000" stroke="none" 
	d="
M300.000000,369.020782 
	C314.484100,369.170746 328.510406,368.262756 342.439545,369.884735 
	C367.477448,372.800293 386.409271,385.367157 398.953003,407.170502 
	C411.845978,429.580994 414.984070,454.093658 413.486938,479.450592 
	C412.399628,497.866486 409.250214,515.836792 399.995941,532.112549 
	C389.934875,549.807312 375.135193,561.244873 354.936279,565.581299 
	C348.494324,566.964172 342.111145,567.341125 335.608795,567.335022 
	C306.110291,567.307434 276.611115,567.220154 247.113998,567.421082 
	C242.072891,567.455444 240.557678,565.908325 240.569672,560.867493 
	C240.716797,499.037628 240.721924,437.207153 240.556335,375.377350 
	C240.542816,370.325226 242.605057,368.988159 247.003220,369.001434 
	C264.502014,369.054260 282.001038,369.021423 300.000000,369.020782 
M286.571503,559.824951 
	C301.903351,559.823181 317.236176,559.926270 332.566803,559.789124 
	C346.874939,559.661072 357.839447,553.579163 364.896393,540.904358 
	C370.987061,529.965027 373.904205,518.000122 375.542694,505.779816 
	C378.136353,486.435333 378.474213,466.969818 377.056244,447.499390 
	C375.854279,430.995209 373.349030,414.775391 365.903564,399.709656 
	C358.587280,384.905212 347.162415,376.908447 330.195312,377.221191 
	C314.535370,377.509888 298.866089,377.277069 283.200958,377.302856 
	C276.311951,377.314209 276.266724,377.346771 276.264709,384.257263 
	C276.248535,439.585266 276.242188,494.913269 276.255096,550.241272 
	C276.257507,560.655090 275.529022,559.769653 286.571503,559.824951 
z"/>
<path fill="#ffffff" opacity="1.000000" stroke="none" 
	d="
M628.243042,423.956482 
	C627.580200,423.053375 627.093140,422.425873 626.606079,421.798401 
	C626.190552,421.828796 625.774963,421.859161 625.359436,421.889526 
	C625.359436,424.415588 625.358643,426.941620 625.359558,429.467651 
	C625.375000,472.957794 625.394226,516.447937 625.397095,559.938049 
	C625.397278,562.456055 626.388062,565.355286 621.909424,565.476074 
	C617.613647,565.591980 616.985291,563.458862 616.988953,559.945923 
	C617.033386,517.288879 617.010071,474.631805 616.994751,431.974731 
	C616.988037,413.312561 616.941223,394.650360 616.965881,375.988251 
	C616.968628,373.904053 616.561829,371.386780 619.463989,370.679810 
	C622.340576,369.979004 625.206116,369.882874 627.013855,372.847992 
	C641.867004,397.210480 663.801941,414.755096 684.945190,433.057800 
	C697.745728,444.138550 712.856873,451.776154 726.942322,460.927521 
	C745.968750,473.289001 762.603394,488.225128 777.347595,505.370941 
	C777.776184,505.869354 778.016296,506.529846 778.494507,507.382690 
	C780.463501,505.211060 779.845154,503.317139 779.846313,501.651886 
	C779.875671,460.827759 779.851135,420.003571 779.844666,379.179413 
	C779.844360,377.180786 779.789307,375.168579 779.993591,373.186798 
	C780.281006,370.398773 782.073181,369.131470 784.786865,369.175781 
	C787.600708,369.221680 788.417847,370.922668 788.349060,373.482422 
	C788.259521,376.812469 788.337280,380.146942 788.337280,383.479492 
	C788.336670,441.966492 788.302185,500.453552 788.401245,558.940369 
	C788.408569,563.284607 787.867859,565.951538 782.543091,565.503418 
	C779.151367,565.218018 777.621643,564.035522 777.816040,560.682068 
	C778.063477,556.414062 776.858582,552.782898 774.578308,548.989685 
	C759.367065,523.684937 736.607910,506.036804 713.939270,488.226318 
	C707.607727,483.251740 700.750732,479.159729 693.612061,475.601471 
	C669.383667,463.524902 649.827454,445.464172 630.599304,426.952393 
	C629.769043,426.153046 629.141113,425.143677 628.243042,423.956482 
z"/>
<path fill="#ffffff" opacity="1.000000" stroke="none" 
	d="
M514.031128,556.919067 
	C513.168457,558.773560 512.499268,560.303040 511.711212,561.768494 
	C510.952057,563.180176 510.585968,565.184387 508.463409,565.100525 
	C506.378021,565.018066 506.069122,563.102600 505.438232,561.580994 
	C499.957184,548.360962 494.464264,535.145874 488.974579,521.929443 
	C468.868530,473.524628 448.763031,425.119568 428.653473,376.716248 
	C427.951996,375.027740 427.134094,373.370056 427.798462,370.942017 
	C437.388245,370.179810 447.112122,369.791931 456.867249,370.342590 
	C459.315582,370.480804 460.028046,372.439362 460.777527,374.343903 
	C468.693390,394.459473 476.618988,414.571198 484.552826,434.679688 
	C495.242279,461.772278 505.933563,488.864075 516.661743,515.941345 
	C517.130554,517.124634 517.533142,518.488403 519.217468,519.178955 
	C521.177124,517.841919 521.705688,515.478638 522.607239,513.438721 
	C538.957520,476.444366 555.261353,439.429474 571.584900,402.423309 
	C575.415405,393.739502 579.307617,385.082886 583.124146,376.392944 
	C586.040588,369.752319 590.696106,368.154907 598.276855,371.716949 
	C570.244568,433.327911 542.208618,494.946930 514.031128,556.919067 
z"/>
<path fill="#ffffff" opacity="1.000000" stroke="none" 
	d="
M351.797424,654.864685 
	C335.271301,668.081665 308.978485,661.320374 303.446289,638.206787 
	C299.708160,622.588562 310.848114,605.666321 327.700623,601.973633 
	C341.719666,598.901733 358.425262,610.496521 361.348755,625.154236 
	C363.659302,636.738892 360.611450,646.519165 351.797424,654.864685 
M333.311127,647.975891 
	C342.245056,646.776306 348.294250,640.610718 348.602631,632.390259 
	C348.878906,625.025391 343.280670,617.703918 336.252777,616.238953 
	C326.906647,614.290833 318.743195,619.602600 317.346680,628.540771 
	C315.609650,639.658264 321.289368,646.971069 333.311127,647.975891 
z"/>
<path fill="#ffffff" opacity="1.000000" stroke="none" 
	d="
M750.596741,649.731689 
	C750.530884,635.449280 750.524475,621.634033 750.351501,607.820801 
	C750.314941,604.903931 751.392273,603.590027 754.243958,603.189331 
	C762.752625,601.993835 764.148254,603.144104 764.216614,611.813049 
	C764.228333,613.299316 764.218262,614.785706 764.218262,617.071106 
	C768.326050,613.696228 770.571106,609.666199 773.536072,606.296631 
	C776.016296,603.477905 785.737244,601.709290 788.716492,603.710571 
	C791.001831,605.245789 789.827881,606.822449 788.668884,608.326721 
	C784.403809,613.862366 780.276367,619.515625 775.776489,624.854370 
	C773.291382,627.802673 773.276794,630.156860 775.477966,633.211853 
	C780.535828,640.231384 785.356873,647.422058 790.248047,654.561035 
	C791.159607,655.891418 792.573120,657.190918 791.493652,659.026489 
	C790.573242,660.591675 788.875183,660.084412 787.439087,660.323792 
	C780.376160,661.501526 775.393799,659.063110 772.116089,652.497803 
	C770.301270,648.862610 767.571228,645.684265 764.175171,642.532532 
	C764.175171,646.767700 764.281677,651.006226 764.147095,655.237061 
	C763.993164,660.077393 762.891907,660.480469 755.115173,660.359497 
	C750.963623,660.294983 749.877014,658.387146 750.428589,654.685425 
	C750.647705,653.214417 750.550293,651.696167 750.596741,649.731689 
z"/>
<path fill="#ffffff" opacity="1.000000" stroke="none" 
	d="
M540.291382,613.755493 
	C542.768616,606.518494 547.777161,602.692688 554.737915,601.838806 
	C562.269287,600.914795 567.599365,605.299316 572.404053,610.387451 
	C573.842957,611.911194 573.557556,613.382202 572.047119,614.697083 
	C570.667847,615.897827 569.245483,617.050659 567.893250,618.280762 
	C565.570496,620.393799 563.349304,620.886902 561.070435,618.183411 
	C560.440918,617.436462 559.576965,616.855347 558.741516,616.321716 
	C557.604736,615.595703 556.315979,614.875671 555.108032,616.058594 
	C553.664429,617.472351 554.438904,618.928711 555.590393,619.965576 
	C559.296753,623.302795 563.120911,626.509033 566.887512,629.779724 
	C570.899719,633.263672 573.948975,637.354858 574.343994,642.852112 
	C574.817505,649.442383 572.960632,655.164978 566.979126,658.669067 
	C560.131470,662.680603 553.034363,662.466919 546.061462,658.864502 
	C544.616150,658.117859 543.274597,656.985657 542.192871,655.759705 
	C540.140686,653.434021 536.794739,650.915710 537.945740,647.840149 
	C539.137512,644.655579 543.277222,643.638428 546.363464,642.085144 
	C547.948120,641.287537 549.135071,642.413574 550.178345,643.636230 
	C551.248657,644.890686 552.313599,646.282043 553.683228,647.118347 
	C555.832825,648.430725 558.289490,648.533508 559.990417,646.356567 
	C561.656067,644.224670 559.911682,642.514771 558.502014,641.199890 
	C554.733337,637.684570 550.710693,634.441284 546.947021,630.920837 
	C542.124817,626.410339 538.985901,621.119202 540.291382,613.755493 
z"/>
<path fill="#ffffff" opacity="1.000000" stroke="none" 
	d="
M636.911621,603.105347 
	C637.894287,603.104492 638.393555,603.104675 638.892883,603.102417 
	C647.495056,603.063843 649.601990,605.910217 647.373230,614.383362 
	C646.765076,616.695251 645.032959,617.181824 643.173157,617.028137 
	C638.748352,616.662415 637.914612,619.018494 637.969788,622.801331 
	C638.122620,633.284485 638.075562,643.771240 638.036560,654.256287 
	C638.015381,659.945618 637.458862,660.167908 630.493530,660.355652 
	C626.101868,660.473938 623.699951,659.591370 623.869141,654.348328 
	C624.207275,643.874939 623.827454,633.380371 623.958679,622.897217 
	C624.004944,619.196289 623.469788,616.691284 618.911987,617.034058 
	C615.452087,617.294189 614.456116,615.294189 614.526184,611.977051 
	C614.704651,603.530396 614.576904,603.480530 622.949280,603.220947 
	C627.439148,603.081787 631.935120,603.137512 636.911621,603.105347 
z"/>
<path fill="#ffffff" opacity="1.000000" stroke="none" 
	d="
M247.893921,621.100708 
	C247.890030,628.578857 248.061630,635.578369 247.805588,642.562256 
	C247.683975,645.879517 248.818771,647.208374 252.026169,646.984680 
	C252.854889,646.926819 253.690491,646.967651 254.522934,646.962769 
	C261.891083,646.919373 264.396790,650.499695 262.155426,657.745239 
	C261.627747,659.451111 260.523926,660.224976 258.876434,660.234253 
	C251.717606,660.274414 244.558472,660.263855 237.399445,660.265381 
	C234.879700,660.265930 233.788925,658.836365 233.786484,656.476685 
	C233.769547,640.159668 233.695862,623.841980 233.816574,607.525879 
	C233.857559,601.987976 238.399200,603.402039 241.620102,603.110840 
	C244.905670,602.813721 247.756592,603.433044 247.815338,607.638184 
	C247.875748,611.963501 247.870468,616.289856 247.893921,621.100708 
z"/>
<path fill="#ffffff" opacity="1.000000" stroke="none" 
	d="
M419.914246,646.480225 
	C421.414825,635.721130 420.381958,625.240723 420.707611,614.785400 
	C420.749054,613.455139 420.711670,612.122559 420.716675,610.791016 
	C420.742249,603.988220 425.070374,601.171631 431.733582,603.485718 
	C433.982239,604.266724 434.205261,605.947388 434.203583,607.836975 
	C434.192169,620.818726 434.356049,633.804871 434.063324,646.780579 
	C433.888458,654.530518 429.896088,659.577759 423.798828,661.034973 
	C417.111237,662.633240 407.200256,659.240112 403.951080,654.337036 
	C402.851105,652.677124 402.916870,651.215393 404.224548,649.829590 
	C405.479126,648.500061 406.892731,647.320129 408.140015,645.984375 
	C410.220947,643.755737 412.214325,643.469482 414.548950,645.714478 
	C415.936951,647.049133 417.510529,648.711853 419.914246,646.480225 
z"/>
<path fill="#ffffff" opacity="1.000000" stroke="none" 
	d="
M495.147888,616.028076 
	C495.149109,629.008728 495.194214,641.495544 495.132416,653.981689 
	C495.102875,659.951477 494.552551,660.348267 487.845825,660.310974 
	C481.453247,660.275391 480.985382,659.912720 480.980530,654.102478 
	C480.968170,639.285217 480.979492,624.467712 481.067139,609.650818 
	C481.101868,603.774902 481.963104,603.093323 488.335297,603.090576 
	C494.246338,603.088013 495.093323,603.881470 495.154694,609.540466 
	C495.176331,611.538025 495.151520,613.536072 495.147888,616.028076 
z"/>
<path fill="#ffffff" opacity="1.000000" stroke="none" 
	d="
M703.153870,635.000000 
	C703.155518,642.319153 703.315063,649.143066 703.110779,655.956055 
	C702.917908,662.386597 697.805786,659.836670 694.465088,660.263306 
	C690.996338,660.706299 689.200439,659.185364 689.246033,655.457214 
	C689.433167,640.161499 689.504822,624.864319 689.636108,609.567871 
	C689.686523,603.691956 690.320984,603.343262 698.542053,603.148376 
	C703.433411,603.032410 703.166504,606.265747 703.155212,609.551331 
	C703.126648,617.867432 703.150269,626.183777 703.153870,635.000000 
z"/>
</g>
</svg>